<?xml version="1.0" encoding="UTF-8" standalone="no"?>
<svg
   xmlns:dc="http://purl.org/dc/elements/1.1/"
   xmlns:cc="http://creativecommons.org/ns#"
   xmlns:rdf="http://www.w3.org/1999/02/22-rdf-syntax-ns#"
   xmlns:svg="http://www.w3.org/2000/svg"
   xmlns="http://www.w3.org/2000/svg"
   xmlns:sodipodi="http://sodipodi.sourceforge.net/DTD/sodipodi-0.dtd"
   xmlns:inkscape="http://www.inkscape.org/namespaces/inkscape"
   width="149.30922mm"
   height="61.108799mm"
   viewBox="8.5679998 7.6700001 98.002591 8.2359024"
   version="1.1"
   id="svg8"
   inkscape:version="0.91 r13725"
   sodipodi:docname="ej1.svg">
  <metadata
     id="metadata6664">
    <rdf:RDF>
      <cc:Work
         rdf:about="">
        <dc:format>image/svg+xml</dc:format>
        <dc:type
           rdf:resource="http://purl.org/dc/dcmitype/StillImage" />
        <dc:title></dc:title>
      </cc:Work>
    </rdf:RDF>
  </metadata>
  <defs
     id="defs6662" />
  <sodipodi:namedview
     pagecolor="#ffffff"
     bordercolor="#666666"
     borderopacity="1"
     objecttolerance="10"
     gridtolerance="10"
     guidetolerance="10"
     inkscape:pageopacity="0"
     inkscape:pageshadow="2"
     inkscape:window-width="640"
     inkscape:window-height="480"
     id="namedview6660"
     showgrid="false"
     fit-margin-top="0"
     fit-margin-left="0"
     fit-margin-right="0"
     fit-margin-bottom="0"
     inkscape:zoom="0.22425739"
     inkscape:cx="266.12802"
     inkscape:cy="-224.00327"
     inkscape:window-x="65"
     inkscape:window-y="24"
     inkscape:window-maximized="0"
     inkscape:current-layer="svg8" />
  <g
     id="layer1"
     transform="translate(-24.301746,-33.436795)">
    <g
       transform="matrix(0.35277777,0,0,-0.35277777,33.431552,34.739831)"
       id="g858">
      <g
         transform="scale(0.1,0.1)"
         id="g860">
        <path
           id="path862"
           style="fill:#000000;fill-opacity:1;fill-rule:nonzero;stroke:none"
           d="m 369.859,178.301 c 0,-39.508 -82.347,-71.528 -183.925,-71.528 -101.5824,0 -183.93009,32.02 -183.93009,71.528 l 0,-104.7697 c 0,-39.504 82.34769,-71.52739 183.93009,-71.52739 101.578,0 183.925,32.02339 183.925,71.52739 l 0,104.7697"
           inkscape:connector-curvature="0" />
        <path
           id="path864"
           style="fill:none;stroke:#ffffff;stroke-width:4;stroke-linecap:butt;stroke-linejoin:miter;stroke-miterlimit:4;stroke-dasharray:none;stroke-opacity:1"
           d="m 369.859,178.301 c 0,-39.508 -82.347,-71.528 -183.925,-71.528 -101.5824,0 -183.93009,32.02 -183.93009,71.528 l 0,-104.7697 c 0,-39.504 82.34769,-71.52739 183.93009,-71.52739 101.578,0 183.925,32.02339 183.925,71.52739 z"
           inkscape:connector-curvature="0" />
        <path
           id="path866"
           style="fill:#000000;fill-opacity:1;fill-rule:nonzero;stroke:none"
           d="m 185.934,106.773 c 101.578,0 183.925,32.02 183.925,71.528 0,39.5 -82.347,71.523 -183.925,71.523 -101.5824,0 -183.93009,-32.023 -183.93009,-71.523 0,-39.508 82.34769,-71.528 183.93009,-71.528"
           inkscape:connector-curvature="0" />
        <path
           id="path868"
           style="fill:none;stroke:#ffffff;stroke-width:4;stroke-linecap:butt;stroke-linejoin:miter;stroke-miterlimit:4;stroke-dasharray:none;stroke-opacity:1"
           d="m 185.934,106.773 c 101.578,0 183.925,32.02 183.925,71.528 0,39.5 -82.347,71.523 -183.925,71.523 -101.5824,0 -183.93009,-32.023 -183.93009,-71.523 0,-39.508 82.34769,-71.528 183.93009,-71.528 z"
           inkscape:connector-curvature="0" />
        <path
           id="path870"
           style="fill:#ffffff;fill-opacity:1;fill-rule:nonzero;stroke:none"
           d="m 143.926,206.27 15.191,-22.79 -57.426,-13.269 12.547,10.453 -88.7458,15.16 22.2617,16.696 85.6371,-14.508 10.535,8.258"
           inkscape:connector-curvature="0" />
        <path
           id="path872"
           style="fill:#ffffff;fill-opacity:1;fill-rule:nonzero;stroke:none"
           d="m 224.727,151.02 -10.36,23.484 51.797,10.355 -8.98,-8.054 86.328,-14.735 -20.719,-16.578 -85.805,16.113 -12.261,-10.585"
           inkscape:connector-curvature="0" />
        <path
           id="path874"
           style="fill:#ffffff;fill-opacity:1;fill-rule:nonzero;stroke:none"
           d="m 196.41,218.703 58.016,15.883 0.687,-24.863 -14.504,2.761 -28.312,-23.48 -27.02,3.934 29.227,22.98 -18.094,2.785"
           inkscape:connector-curvature="0" />
        <path
           id="path876"
           style="fill:#ffffff;fill-opacity:1;fill-rule:nonzero;stroke:none"
           d="m 171.547,129.609 -55.246,-10.355 -2.071,25.551 15.883,-3.453 30.41,25.968 26.911,-4.558 -32.457,-28.313 16.57,-4.84"
           inkscape:connector-curvature="0" />
      </g>
    </g>
    <g
       id="g906"
       transform="matrix(0.35277777,0,0,-0.35277777,71.636024,34.582611)">
      <g
         id="g904"
         transform="scale(0.1,0.1)">
        <path
           d="m 369.859,178.301 c 0,-39.508 -82.347,-71.528 -183.925,-71.528 -101.5824,0 -183.93009,32.02 -183.93009,71.528 l 0,-104.7697 c 0,-39.504 82.34769,-71.52739 183.93009,-71.52739 101.578,0 183.925,32.02339 183.925,71.52739 l 0,104.7697"
           style="fill:#000000;fill-opacity:1;fill-rule:nonzero;stroke:none"
           id="path888"
           inkscape:connector-curvature="0" />
        <path
           d="m 369.859,178.301 c 0,-39.508 -82.347,-71.528 -183.925,-71.528 -101.5824,0 -183.93009,32.02 -183.93009,71.528 l 0,-104.7697 c 0,-39.504 82.34769,-71.52739 183.93009,-71.52739 101.578,0 183.925,32.02339 183.925,71.52739 z"
           style="fill:none;stroke:#ffffff;stroke-width:4;stroke-linecap:butt;stroke-linejoin:miter;stroke-miterlimit:4;stroke-dasharray:none;stroke-opacity:1"
           id="path890"
           inkscape:connector-curvature="0" />
        <path
           d="m 185.934,106.773 c 101.578,0 183.925,32.02 183.925,71.528 0,39.5 -82.347,71.523 -183.925,71.523 -101.5824,0 -183.93009,-32.023 -183.93009,-71.523 0,-39.508 82.34769,-71.528 183.93009,-71.528"
           style="fill:#000000;fill-opacity:1;fill-rule:nonzero;stroke:none"
           id="path892"
           inkscape:connector-curvature="0" />
        <path
           d="m 185.934,106.773 c 101.578,0 183.925,32.02 183.925,71.528 0,39.5 -82.347,71.523 -183.925,71.523 -101.5824,0 -183.93009,-32.023 -183.93009,-71.523 0,-39.508 82.34769,-71.528 183.93009,-71.528 z"
           style="fill:none;stroke:#ffffff;stroke-width:4;stroke-linecap:butt;stroke-linejoin:miter;stroke-miterlimit:4;stroke-dasharray:none;stroke-opacity:1"
           id="path894"
           inkscape:connector-curvature="0" />
        <path
           d="m 143.926,206.27 15.191,-22.79 -57.426,-13.269 12.547,10.453 -88.7458,15.16 22.2617,16.696 85.6371,-14.508 10.535,8.258"
           style="fill:#ffffff;fill-opacity:1;fill-rule:nonzero;stroke:none"
           id="path896"
           inkscape:connector-curvature="0" />
        <path
           d="m 224.727,151.02 -10.36,23.484 51.797,10.355 -8.98,-8.054 86.328,-14.735 -20.719,-16.578 -85.805,16.113 -12.261,-10.585"
           style="fill:#ffffff;fill-opacity:1;fill-rule:nonzero;stroke:none"
           id="path898"
           inkscape:connector-curvature="0" />
        <path
           d="m 196.41,218.703 58.016,15.883 0.687,-24.863 -14.504,2.761 -28.312,-23.48 -27.02,3.934 29.227,22.98 -18.094,2.785"
           style="fill:#ffffff;fill-opacity:1;fill-rule:nonzero;stroke:none"
           id="path900"
           inkscape:connector-curvature="0" />
        <path
           d="m 171.547,129.609 -55.246,-10.355 -2.071,25.551 15.883,-3.453 30.41,25.968 26.911,-4.558 -32.457,-28.313 16.57,-4.84"
           style="fill:#ffffff;fill-opacity:1;fill-rule:nonzero;stroke:none"
           id="path902"
           inkscape:connector-curvature="0" />
      </g>
    </g>
    <g
       transform="matrix(0.35277777,0,0,-0.35277777,109.56513,34.053444)"
       id="g926">
      <g
         transform="scale(0.1,0.1)"
         id="g924">
        <path
           id="path908"
           style="fill:#000000;fill-opacity:1;fill-rule:nonzero;stroke:none"
           d="m 369.859,178.301 c 0,-39.508 -82.347,-71.528 -183.925,-71.528 -101.5824,0 -183.93009,32.02 -183.93009,71.528 l 0,-104.7697 c 0,-39.504 82.34769,-71.52739 183.93009,-71.52739 101.578,0 183.925,32.02339 183.925,71.52739 l 0,104.7697"
           inkscape:connector-curvature="0" />
        <path
           id="path910"
           style="fill:none;stroke:#ffffff;stroke-width:4;stroke-linecap:butt;stroke-linejoin:miter;stroke-miterlimit:4;stroke-dasharray:none;stroke-opacity:1"
           d="m 369.859,178.301 c 0,-39.508 -82.347,-71.528 -183.925,-71.528 -101.5824,0 -183.93009,32.02 -183.93009,71.528 l 0,-104.7697 c 0,-39.504 82.34769,-71.52739 183.93009,-71.52739 101.578,0 183.925,32.02339 183.925,71.52739 z"
           inkscape:connector-curvature="0" />
        <path
           id="path912"
           style="fill:#000000;fill-opacity:1;fill-rule:nonzero;stroke:none"
           d="m 185.934,106.773 c 101.578,0 183.925,32.02 183.925,71.528 0,39.5 -82.347,71.523 -183.925,71.523 -101.5824,0 -183.93009,-32.023 -183.93009,-71.523 0,-39.508 82.34769,-71.528 183.93009,-71.528"
           inkscape:connector-curvature="0" />
        <path
           id="path914"
           style="fill:none;stroke:#ffffff;stroke-width:4;stroke-linecap:butt;stroke-linejoin:miter;stroke-miterlimit:4;stroke-dasharray:none;stroke-opacity:1"
           d="m 185.934,106.773 c 101.578,0 183.925,32.02 183.925,71.528 0,39.5 -82.347,71.523 -183.925,71.523 -101.5824,0 -183.93009,-32.023 -183.93009,-71.523 0,-39.508 82.34769,-71.528 183.93009,-71.528 z"
           inkscape:connector-curvature="0" />
        <path
           id="path916"
           style="fill:#ffffff;fill-opacity:1;fill-rule:nonzero;stroke:none"
           d="m 143.926,206.27 15.191,-22.79 -57.426,-13.269 12.547,10.453 -88.7458,15.16 22.2617,16.696 85.6371,-14.508 10.535,8.258"
           inkscape:connector-curvature="0" />
        <path
           id="path918"
           style="fill:#ffffff;fill-opacity:1;fill-rule:nonzero;stroke:none"
           d="m 224.727,151.02 -10.36,23.484 51.797,10.355 -8.98,-8.054 86.328,-14.735 -20.719,-16.578 -85.805,16.113 -12.261,-10.585"
           inkscape:connector-curvature="0" />
        <path
           id="path920"
           style="fill:#ffffff;fill-opacity:1;fill-rule:nonzero;stroke:none"
           d="m 196.41,218.703 58.016,15.883 0.687,-24.863 -14.504,2.761 -28.312,-23.48 -27.02,3.934 29.227,22.98 -18.094,2.785"
           inkscape:connector-curvature="0" />
        <path
           id="path922"
           style="fill:#ffffff;fill-opacity:1;fill-rule:nonzero;stroke:none"
           d="m 171.547,129.609 -55.246,-10.355 -2.071,25.551 15.883,-3.453 30.41,25.968 26.911,-4.558 -32.457,-28.313 16.57,-4.84"
           inkscape:connector-curvature="0" />
      </g>
    </g>
    <g
       transform="matrix(0.35277777,0,0,-0.35277777,101.82997,65.279532)"
       id="g955">
      <g
         transform="scale(0.1,0.1)"
         id="g957">
        <path
           id="path959"
           style="fill:#ffffff;fill-opacity:1;fill-rule:nonzero;stroke:none"
           d="m 285.785,422.332 c -144,28.75 -220.0037,-45 -207.9998,-108.75 L 78.75,310.109 C -33.457,291.012 -4.05078,158.582 49.7813,158.582 l 5.3007,0.172 C 41.5234,96.5273 172.656,33.1953 245.785,64.832 l 4.695,5.1524 C 276.563,14.0195 369.184,4.67188 460.785,2.33203 540.172,0.308594 586.496,6.58984 620.535,41.3828 l 5.25,-1.5508 c 127.07,-10.2109 184.942,77.555 157.16,140.578 l 6.84,1.922 c 43.309,11.457 48.309,111.457 -26,126.25 l 1.418,3.875 c 32.277,65.055 -43.82,126.402 -149.418,114.875 l -7.32,3.82 c -75.574,68.442 -293.141,57.286 -318.336,-10.406 l -4.344,1.586"
           inkscape:connector-curvature="0" />
        <path
           id="path961"
           style="fill:none;stroke:#000000;stroke-width:4;stroke-linecap:butt;stroke-linejoin:miter;stroke-miterlimit:4;stroke-dasharray:none;stroke-opacity:1"
           d="m 285.785,422.332 c -144,28.75 -220.0037,-45 -207.9998,-108.75 L 78.75,310.109 C -33.457,291.012 -4.05078,158.582 49.7813,158.582 l 5.3007,0.172 C 41.5234,96.5273 172.656,33.1953 245.785,64.832 l 4.695,5.1524 C 276.563,14.0195 369.184,4.67188 460.785,2.33203 540.172,0.308594 586.496,6.58984 620.535,41.3828 l 5.25,-1.5508 c 127.07,-10.2109 184.942,77.555 157.16,140.578 l 6.84,1.922 c 43.309,11.457 48.309,111.457 -26,126.25 l 1.418,3.875 c 32.277,65.055 -43.82,126.402 -149.418,114.875 l -7.32,3.82 c -75.574,68.442 -293.141,57.286 -318.336,-10.406 z"
           inkscape:connector-curvature="0" />
      </g>
    </g>
    <path
       style="opacity:0.95999995;fill:none;fill-rule:evenodd;stroke:#ff0940;stroke-width:0.26458332px;stroke-linecap:butt;stroke-linejoin:miter;stroke-opacity:1"
       d="m 46.487463,29.607197 25.519319,0"
       id="path969"
       inkscape:connector-curvature="0" />
    <path
       id="path971"
       d="m 84.587466,29.607197 25.077264,0"
       style="opacity:0.95999995;fill:none;fill-rule:evenodd;stroke:#ff0940;stroke-width:0.26458332px;stroke-linecap:butt;stroke-linejoin:miter;stroke-opacity:1"
       inkscape:connector-curvature="0" />
    <text
       style="font-style:normal;font-weight:normal;font-size:3.75509px;line-height:125%;font-family:sans-serif;letter-spacing:0px;word-spacing:0px;white-space:pre;fill:#000000;fill-opacity:1;stroke:none;stroke-width:0.26458299px;stroke-linecap:butt;stroke-linejoin:miter;stroke-opacity:1"
       x="114.04487"
       y="58.642765"
       id="text975"
       sodipodi:linespacing="125%">
      <tspan
         id="tspan973"
         x="114.04487"
         y="58.642765"
         style="stroke-width:0.26458332px">ISP</tspan>
    </text>
    <path
       style="fill:none;fill-rule:evenodd;stroke:#ff093f;stroke-width:0.26458332px;stroke-linecap:butt;stroke-linejoin:miter;stroke-opacity:0.96078431"
       d="m 116.16872,33.850154 0,14.687597"
       id="path977"
       inkscape:connector-curvature="0" />
    <g
       transform="matrix(0.35277777,0,0,-0.35277777,32.869608,59.728718)"
       id="g1008">
      <g
         transform="scale(0.1,0.1)"
         id="g1010">
        <path
           id="path1012"
           style="fill:none;stroke:#000000;stroke-width:4;stroke-linecap:round;stroke-linejoin:round;stroke-miterlimit:4;stroke-dasharray:none;stroke-opacity:1"
           d="m 325.16,43.9922 c 4.074,4.8906 -18.156,11.5195 6.867,15.6328 15.981,2.625 64.391,31.0781 -49.136,32.5625"
           inkscape:connector-curvature="0" />
        <path
           id="path1014"
           style="fill:#000000;fill-opacity:1;fill-rule:nonzero;stroke:none"
           d="m 65.4609,52.3125 0,27.7109 183.5161,0 0,-27.7109 -183.5161,0"
           inkscape:connector-curvature="0" />
        <path
           id="path1016"
           style="fill:none;stroke:#ffffff;stroke-width:4;stroke-linecap:round;stroke-linejoin:round;stroke-miterlimit:4;stroke-dasharray:none;stroke-opacity:1"
           d="m 65.4609,52.3125 0,27.7109 183.5161,0 0,-27.7109 z"
           inkscape:connector-curvature="0" />
        <path
           id="path1018"
           style="fill:#000000;fill-opacity:1;fill-rule:nonzero;stroke:none"
           d="m 248.793,52.2109 0,27.8125 37.023,37.6956 0,-28.4846 -37.023,-37.0235"
           inkscape:connector-curvature="0" />
        <path
           id="path1020"
           style="fill:none;stroke:#ffffff;stroke-width:4;stroke-linecap:round;stroke-linejoin:round;stroke-miterlimit:4;stroke-dasharray:none;stroke-opacity:1"
           d="m 248.793,52.2109 0,27.8125 37.023,37.6956 0,-28.4846 z"
           inkscape:connector-curvature="0" />
        <path
           id="path1022"
           style="fill:#000000;fill-opacity:1;fill-rule:nonzero;stroke:none"
           d="m 65.4609,47.3125 0,32.7109 183.5161,0 0,-32.7109 -183.5161,0"
           inkscape:connector-curvature="0" />
        <path
           id="path1024"
           style="fill:none;stroke:#ffffff;stroke-width:4;stroke-linecap:round;stroke-linejoin:round;stroke-miterlimit:4;stroke-dasharray:none;stroke-opacity:1"
           d="m 65.4609,47.3125 0,32.7109 183.5161,0 0,-32.7109 z"
           inkscape:connector-curvature="0" />
        <path
           id="path1026"
           style="fill:#000000;fill-opacity:1;fill-rule:nonzero;stroke:none"
           d="m 248.793,47.2109 0,32.8125 37.023,37.6956 0,-33.4846 -37.023,-37.0235"
           inkscape:connector-curvature="0" />
        <path
           id="path1028"
           style="fill:none;stroke:#ffffff;stroke-width:4;stroke-linecap:round;stroke-linejoin:round;stroke-miterlimit:4;stroke-dasharray:none;stroke-opacity:1"
           d="m 248.793,47.2109 0,32.8125 37.023,37.6956 0,-33.4846 z"
           inkscape:connector-curvature="0" />
        <path
           id="path1030"
           style="fill:#000000;fill-opacity:1;fill-rule:nonzero;stroke:none"
           d="m 298.664,122.719 -25.937,-37.6956 -228.3754,0 36.7461,37.6956 217.5663,0"
           inkscape:connector-curvature="0" />
        <path
           id="path1032"
           style="fill:none;stroke:#ffffff;stroke-width:4;stroke-linecap:round;stroke-linejoin:round;stroke-miterlimit:4;stroke-dasharray:none;stroke-opacity:1"
           d="m 298.664,122.719 -25.937,-37.6956 -228.3754,0 36.7461,37.6956 z"
           inkscape:connector-curvature="0" />
        <path
           id="path1034"
           style="fill:#000000;fill-opacity:1;fill-rule:nonzero;stroke:none"
           d="m 43.793,72.3125 0,12.7109 218.512,0 0,-12.7109 -218.512,0"
           inkscape:connector-curvature="0" />
        <path
           id="path1036"
           style="fill:none;stroke:#ffffff;stroke-width:4;stroke-linecap:round;stroke-linejoin:round;stroke-miterlimit:4;stroke-dasharray:none;stroke-opacity:1"
           d="m 43.793,72.3125 0,12.7109 218.512,0 0,-12.7109 z"
           inkscape:connector-curvature="0" />
        <path
           id="path1038"
           style="fill:#000000;fill-opacity:1;fill-rule:nonzero;stroke:none"
           d="m 262.125,72.2109 0,12.8125 37.023,37.6956 0,-13.485 -37.023,-37.0231"
           inkscape:connector-curvature="0" />
        <path
           id="path1040"
           style="fill:none;stroke:#ffffff;stroke-width:4;stroke-linecap:round;stroke-linejoin:round;stroke-miterlimit:4;stroke-dasharray:none;stroke-opacity:1"
           d="m 262.125,72.2109 0,12.8125 37.023,37.6956 0,-13.485 z"
           inkscape:connector-curvature="0" />
        <path
           id="path1042"
           style="fill:#000000;fill-opacity:1;fill-rule:nonzero;stroke:none"
           d="m 298.664,122.719 -25.937,-37.6956 -228.3754,0 36.7461,37.6956 217.5663,0"
           inkscape:connector-curvature="0" />
        <path
           id="path1044"
           style="fill:none;stroke:#ffffff;stroke-width:4;stroke-linecap:round;stroke-linejoin:round;stroke-miterlimit:4;stroke-dasharray:none;stroke-opacity:1"
           d="m 298.664,122.719 -25.937,-37.6956 -228.3754,0 36.7461,37.6956 z"
           inkscape:connector-curvature="0" />
        <path
           id="path1046"
           style="fill:#000000;fill-opacity:1;fill-rule:nonzero;stroke:none"
           d="m 43.793,72.3125 0,12.7109 218.512,0 0,-12.7109 -218.512,0"
           inkscape:connector-curvature="0" />
        <path
           id="path1048"
           style="fill:none;stroke:#ffffff;stroke-width:4;stroke-linecap:round;stroke-linejoin:round;stroke-miterlimit:4;stroke-dasharray:none;stroke-opacity:1"
           d="m 43.793,72.3125 0,12.7109 218.512,0 0,-12.7109 z"
           inkscape:connector-curvature="0" />
        <path
           id="path1050"
           style="fill:#000000;fill-opacity:1;fill-rule:nonzero;stroke:none"
           d="m 262.125,72.2109 0,12.8125 37.023,37.6956 0,-13.485 -37.023,-37.0231"
           inkscape:connector-curvature="0" />
        <path
           id="path1052"
           style="fill:none;stroke:#ffffff;stroke-width:4;stroke-linecap:round;stroke-linejoin:round;stroke-miterlimit:4;stroke-dasharray:none;stroke-opacity:1"
           d="m 262.125,72.2109 0,12.8125 37.023,37.6956 0,-13.485 z"
           inkscape:connector-curvature="0" />
        <path
           id="path1054"
           style="fill:#000000;fill-opacity:1;fill-rule:nonzero;stroke:none"
           d="m 299.844,296.023 -197.328,0 -57.7543,-13.582 228.5783,0 26.504,13.582"
           inkscape:connector-curvature="0" />
        <path
           id="path1056"
           style="fill:none;stroke:#ffffff;stroke-width:4;stroke-linecap:round;stroke-linejoin:round;stroke-miterlimit:4;stroke-dasharray:none;stroke-opacity:1"
           d="m 299.844,296.023 -197.328,0 -57.7543,-13.582 228.5783,0 z"
           inkscape:connector-curvature="0" />
        <path
           id="path1058"
           style="fill:#000000;fill-opacity:1;fill-rule:nonzero;stroke:none"
           d="m 263.469,101.031 -10.094,8.332 -185.4141,0 9.7891,-8.332 185.719,0"
           inkscape:connector-curvature="0" />
        <path
           id="path1060"
           style="fill:none;stroke:#ffffff;stroke-width:4;stroke-linecap:round;stroke-linejoin:round;stroke-miterlimit:4;stroke-dasharray:none;stroke-opacity:1"
           d="m 263.469,101.031 -10.094,8.332 -185.4141,0 9.7891,-8.332 z"
           inkscape:connector-curvature="0" />
        <path
           id="path1062"
           style="fill:#000000;fill-opacity:1;fill-rule:nonzero;stroke:none"
           d="m 264.59,102.48 -12.774,8.551 47.266,25 -30.414,-30.097 -4.078,-3.454"
           inkscape:connector-curvature="0" />
        <path
           id="path1064"
           style="fill:none;stroke:#ffffff;stroke-width:4;stroke-linecap:round;stroke-linejoin:round;stroke-miterlimit:4;stroke-dasharray:none;stroke-opacity:1"
           d="m 264.59,102.48 -12.774,8.551 47.266,25 -30.414,-30.097 z"
           inkscape:connector-curvature="0" />
        <path
           id="path1066"
           style="fill:#000000;fill-opacity:1;fill-rule:nonzero;stroke:none"
           d="m 273.34,282.441 0,-170.468 26.504,24.629 0,159.421 -26.504,-13.582"
           inkscape:connector-curvature="0" />
        <path
           id="path1068"
           style="fill:none;stroke:#ffffff;stroke-width:4;stroke-linecap:round;stroke-linejoin:round;stroke-miterlimit:4;stroke-dasharray:none;stroke-opacity:1"
           d="m 273.34,282.441 0,-170.468 26.504,24.629 0,159.421 z"
           inkscape:connector-curvature="0" />
        <path
           id="path1070"
           style="fill:#000000;fill-opacity:1;fill-rule:nonzero;stroke:none"
           d="m 273.34,110.098 0,172.343 -228.5783,0 0,-172.343 228.5783,0"
           inkscape:connector-curvature="0" />
        <path
           id="path1072"
           style="fill:none;stroke:#ffffff;stroke-width:4;stroke-linecap:round;stroke-linejoin:round;stroke-miterlimit:4;stroke-dasharray:none;stroke-opacity:1"
           d="m 273.34,110.098 0,172.343 -228.5783,0 0,-172.343 z"
           inkscape:connector-curvature="0" />
        <path
           id="path1074"
           style="fill:#000000;fill-opacity:1;fill-rule:nonzero;stroke:none"
           d="m 254.137,2.59375 0,13.25395 28.597,39.5625 0,-24.2188 -28.597,-28.59765"
           inkscape:connector-curvature="0" />
        <path
           id="path1076"
           style="fill:none;stroke:#ffffff;stroke-width:4;stroke-linecap:round;stroke-linejoin:round;stroke-miterlimit:4;stroke-dasharray:none;stroke-opacity:1"
           d="m 254.137,2.59375 0,13.25395 28.597,39.5625 0,-24.2188 z"
           inkscape:connector-curvature="0" />
        <path
           id="path1078"
           style="fill:#000000;fill-opacity:1;fill-rule:nonzero;stroke:none"
           d="m 254.133,15.6484 0,-13.05465 -252.12909,0 0,13.05465 252.12909,0"
           inkscape:connector-curvature="0" />
        <path
           id="path1080"
           style="fill:none;stroke:#ffffff;stroke-width:4;stroke-linecap:round;stroke-linejoin:round;stroke-miterlimit:4;stroke-dasharray:none;stroke-opacity:1"
           d="m 254.133,15.6484 0,-13.05465 -252.12909,0 0,13.05465 z"
           inkscape:connector-curvature="0" />
        <path
           id="path1082"
           style="fill:#000000;fill-opacity:1;fill-rule:nonzero;stroke:none"
           d="m 325.836,13.0469 16.723,33.4414 -38.219,0 -16.719,-33.4414 38.215,0"
           inkscape:connector-curvature="0" />
        <path
           id="path1084"
           style="fill:none;stroke:#ffffff;stroke-width:4;stroke-linecap:round;stroke-linejoin:round;stroke-miterlimit:4;stroke-dasharray:none;stroke-opacity:1"
           d="m 325.836,13.0469 16.723,33.4414 -38.219,0 -16.719,-33.4414 z"
           inkscape:connector-curvature="0" />
        <path
           id="path1086"
           style="fill:#000000;fill-opacity:1;fill-rule:nonzero;stroke:none"
           d="m 287.621,13.0469 38.215,0 0,-10.74612 -38.215,0 0,10.74612"
           inkscape:connector-curvature="0" />
        <path
           id="path1088"
           style="fill:none;stroke:#ffffff;stroke-width:4;stroke-linecap:round;stroke-linejoin:round;stroke-miterlimit:4;stroke-dasharray:none;stroke-opacity:1"
           d="m 287.621,13.0469 38.215,0 0,-10.74612 -38.215,0 z"
           inkscape:connector-curvature="0" />
        <path
           id="path1090"
           style="fill:#000000;fill-opacity:1;fill-rule:nonzero;stroke:none"
           d="M 325.539,2.00391 325.641,13.0469 342.359,46.4883 342.262,23.5 325.539,2.00391"
           inkscape:connector-curvature="0" />
        <path
           id="path1092"
           style="fill:none;stroke:#ffffff;stroke-width:4;stroke-linecap:round;stroke-linejoin:round;stroke-miterlimit:4;stroke-dasharray:none;stroke-opacity:1"
           d="M 325.539,2.00391 325.641,13.0469 342.359,46.4883 342.262,23.5 Z"
           inkscape:connector-curvature="0" />
        <path
           id="path1094"
           style="fill:#000000;fill-opacity:1;fill-rule:nonzero;stroke:none"
           d="m 254.137,15.6484 -251.32841,0 28.59771,39.7618 251.3277,0 -28.597,-39.7618"
           inkscape:connector-curvature="0" />
        <path
           id="path1096"
           style="fill:none;stroke:#ffffff;stroke-width:4;stroke-linecap:round;stroke-linejoin:round;stroke-miterlimit:4;stroke-dasharray:none;stroke-opacity:1"
           d="m 254.137,15.6484 -251.32841,0 28.59771,39.7618 251.3277,0 z"
           inkscape:connector-curvature="0" />
        <path
           id="path1098"
           style="fill:#000000;fill-opacity:1;fill-rule:nonzero;stroke:none"
           d="m 77.9609,264.441 160.5391,0 c 10.445,0 18.918,-8.464 18.918,-18.914 l 0,-101.422 c 0,-10.449 -8.473,-18.914 -18.918,-18.914 l -160.5391,0 c -10.4453,0 -18.9179,8.465 -18.9179,18.914 l 0,101.422 c 0,10.45 8.4726,18.914 18.9179,18.914"
           inkscape:connector-curvature="0" />
        <path
           id="path1100"
           style="fill:none;stroke:#ffffff;stroke-width:4;stroke-linecap:round;stroke-linejoin:round;stroke-miterlimit:4;stroke-dasharray:none;stroke-opacity:1"
           d="m 77.9609,264.441 160.5391,0 c 10.445,0 18.918,-8.464 18.918,-18.914 l 0,-101.422 c 0,-10.449 -8.473,-18.914 -18.918,-18.914 l -160.5391,0 c -10.4453,0 -18.9179,8.465 -18.9179,18.914 l 0,101.422 c 0,10.45 8.4726,18.914 18.9179,18.914 z"
           inkscape:connector-curvature="0" />
      </g>
    </g>
    <path
       id="path1149"
       d="m 39.439542,34.703827 0,14.363091"
       style="fill:none;fill-rule:evenodd;stroke:#ff093f;stroke-width:0.26458332px;stroke-linecap:butt;stroke-linejoin:miter;stroke-opacity:0.96078431"
       inkscape:connector-curvature="0" />
    <text
       style="font-style:normal;font-weight:normal;font-size:2.82222009px;line-height:125%;font-family:sans-serif;letter-spacing:0px;word-spacing:0px;white-space:pre;fill:#000000;fill-opacity:1;stroke:none;stroke-width:0.26458299px;stroke-linecap:butt;stroke-linejoin:miter;stroke-opacity:1"
       x="40.864902"
       y="44.350033"
       id="text1153"
       sodipodi:linespacing="125%">
      <tspan
         id="tspan1151"
         x="40.864902"
         y="44.350033"
         style="stroke-width:0.26458332px">172.16.82.90/20</tspan>
    </text>
    <text
       id="text1157"
       y="27.952982"
       x="49.069355"
       style="font-style:normal;font-weight:normal;font-size:2.82222009px;line-height:125%;font-family:sans-serif;letter-spacing:0px;word-spacing:0px;white-space:pre;fill:#000000;fill-opacity:1;stroke:none;stroke-width:0.26458299px;stroke-linecap:butt;stroke-linejoin:miter;stroke-opacity:1"
       sodipodi:linespacing="125%">
      <tspan
         style="stroke-width:0.26458332px"
         y="27.952982"
         x="49.069355"
         id="tspan1155">172.16.32.0/20</tspan>
    </text>
    <text
       style="font-style:normal;font-weight:normal;font-size:2.82222009px;line-height:125%;font-family:sans-serif;letter-spacing:0px;word-spacing:0px;white-space:pre;fill:#000000;fill-opacity:1;stroke:none;stroke-width:0.26458299px;stroke-linecap:butt;stroke-linejoin:miter;stroke-opacity:1"
       x="86.093224"
       y="28.368248"
       id="text1161"
       sodipodi:linespacing="125%">
      <tspan
         id="tspan1159"
         x="86.093224"
         y="28.368248"
         style="stroke-width:0.26458332px">172.16.64.0/20</tspan>
    </text>
  </g>
</svg>
